<svg width="318" height="263" viewBox="0 0 318 263" fill="none" xmlns="http://www.w3.org/2000/svg">
<path d="M174.529 103.888V103.885C174.512 90.6168 169.247 77.8955 159.886 68.5101C150.524 59.1246 137.83 53.8413 124.586 53.8202L124.58 53.8202C109.184 53.8341 94.4237 59.9685 83.5373 70.8756C72.6511 81.7824 66.5278 96.5708 66.5093 111.995L66.5093 112.001C66.5277 130.107 73.7108 147.467 86.4846 160.274C99.2587 173.081 116.581 180.289 134.652 180.314L134.658 180.314C156.085 180.289 176.625 171.747 191.774 156.565C206.923 141.383 215.444 120.8 215.469 99.3311L215.469 99.3253C215.44 73.661 205.256 49.0549 187.149 30.9034C169.042 12.7517 144.49 2.53657 118.877 2.5H118.874C54.6956 2.5 2.5 54.8184 2.5 119.124C2.5 197.059 65.7763 260.5 143.571 260.5C238.381 260.5 315.5 183.194 315.5 88.1892C315.5 83.5115 313.646 79.0244 310.344 75.7152C307.042 72.4057 302.562 70.5455 297.89 70.5455C293.217 70.5455 288.737 72.4057 285.435 75.7152C282.133 79.0244 280.279 83.5115 280.279 88.1892C280.279 163.759 218.939 225.228 143.557 225.23C115.493 225.193 88.5888 214.002 68.7445 194.111C48.9008 174.221 37.7373 147.254 37.704 119.124C37.7285 97.5536 46.2894 76.8746 61.5069 61.6236C76.7243 46.3727 97.3552 37.795 118.873 37.7705C135.154 37.7905 150.764 44.2811 162.278 55.8205C173.792 67.36 180.27 83.0064 180.29 99.328C180.275 111.454 175.46 123.077 166.904 131.647C158.348 140.217 146.75 145.035 134.656 145.044C125.917 145.035 117.537 141.552 111.356 135.357C105.175 129.162 101.697 120.762 101.688 111.999C101.697 105.924 104.108 100.102 108.393 95.8081C112.677 91.5143 118.484 89.0993 124.541 89.0907C128.453 89.0953 132.204 90.6543 134.973 93.4276C137.742 96.2019 139.302 99.965 139.308 103.892C139.309 108.568 141.163 113.054 144.464 116.362C147.766 119.672 152.246 121.532 156.918 121.532C161.59 121.532 166.07 119.672 169.372 116.362C172.674 113.053 174.529 108.566 174.529 103.888Z" fill="#0AA522" stroke="black" stroke-width="5"/>
</svg>
