<svg id="visual" viewBox="0 0 900 600" width="900" height="600" xmlns="http://www.w3.org/2000/svg" xmlns:xlink="http://www.w3.org/1999/xlink" version="1.1"><rect x="0" y="0" width="900" height="600" fill="#FFFFFF"></rect><defs><linearGradient id="grad1_0" x1="33.3%" y1="0%" x2="100%" y2="100%"><stop offset="20%" stop-color="#ffffff" stop-opacity="1"></stop><stop offset="80%" stop-color="#ffffff" stop-opacity="1"></stop></linearGradient></defs><defs><linearGradient id="grad2_0" x1="0%" y1="0%" x2="66.7%" y2="100%"><stop offset="20%" stop-color="#ffffff" stop-opacity="1"></stop><stop offset="80%" stop-color="#ffffff" stop-opacity="1"></stop></linearGradient></defs><g transform="translate(900, 0)"><path d="M0 351.5C-47.4 344.2 -94.8 336.9 -130.1 314.1C-165.4 291.3 -188.7 253 -222.7 222.7C-256.8 192.5 -301.5 170.3 -324.8 134.5C-348 98.8 -349.8 49.4 -351.5 0L0 0Z" fill="#001122"></path></g><g transform="translate(0, 600)"><path d="M0 -351.5C45.6 -346.7 91.2 -341.8 134.5 -324.8C177.9 -307.7 219 -278.5 241.1 -241.1C263.3 -203.8 266.5 -158.3 281.8 -116.7C297 -75.2 324.3 -37.6 351.5 0L0 0Z" fill="#001122"></path></g></svg>