<?xml version="1.0" encoding="utf-8"?>
<!-- Generator: Adobe Illustrator 26.3.1, SVG Export Plug-In . SVG Version: 6.00 Build 0)  -->
<svg version="1.1" id="visual" xmlns="http://www.w3.org/2000/svg" xmlns:xlink="http://www.w3.org/1999/xlink" x="0px" y="0px"
	 viewBox="0 0 900 600" style="enable-background:new 0 0 900 600;" xml:space="preserve">
<style type="text/css">
	.st0{fill:none;stroke:#0066FF;stroke-width:24;stroke-linecap:round;}
</style>
<path class="st0" d="M290,0l1,6.3c1,6.4,3,19-12.7,31.5c-15.6,12.5-49,24.9-65,37.4s-14.6,25.1,6.9,37.6s63.1,24.9,80.8,37.4
	s11.3,25.1-7.8,37.6c-19.2,12.5-51.2,24.9-57.5,37.4c-6.4,12.5,13,25.1,27.1,37.6c14.2,12.5,23.2,24.9,14,37.4
	c-9.1,12.5-36.5,25.1-36.8,37.6s26.3,24.9,11.7,37.4c-14.7,12.5-70.7,25.1-94.2,37.6s-14.5,24.9,0,37.4s34.5,25.1,35.3,37.6
	c0.9,12.5-17.5,24.9-12.3,37.4s33.8,25.1,44.2,37.6c10.3,12.5,2.3,24.9-1.7,31l-4,6.2"/>
</svg>
