<?xml version="1.0" encoding="utf-8"?>
<!-- Generator: Adobe Illustrator 26.3.1, SVG Export Plug-In . SVG Version: 6.00 Build 0)  -->
<svg version="1.1" id="visual" xmlns="http://www.w3.org/2000/svg" xmlns:xlink="http://www.w3.org/1999/xlink" x="0px" y="0px"
	 viewBox="0 0 900 600" style="enable-background:new 0 0 900 600;" xml:space="preserve">
<style type="text/css">
	.st0{fill:none;stroke:#FF0066;stroke-width:24;stroke-linecap:round;}
</style>
<path class="st0" d="M652,600l0.2-5.3c0.1-5.4,0.5-16,1.5-26.5s2.6-20.9-7.4-31.4s-31.6-21.1-43-31.6c-11.3-10.5-12.3-20.9-5.8-31.4
	s20.5-21.1,37.3-31.6c16.9-10.5,36.5-20.9,44.5-31.4s4.4-21.1,16.7-31.8s40.7-21.3,56.3-31.8c15.7-10.5,18.7-20.9,3.5-31.4
	c-15.1-10.5-48.5-21.1-73.6-31.6c-25.2-10.5-42.2-20.9-37-31.4c5.1-10.5,32.5-21.1,53-31.8s34.1-21.3,18.8-31.8
	s-59.7-20.9-82.5-31.4s-24.2-21.1-4.2-31.6s61.4-20.9,91.2-31.4s48.2-21.1,35.7-31.6s-55.9-20.9-64.9-31.4s16.4-21.1,29-26.5L734,0"
	/>
</svg>
