<svg id="visual" viewBox="0 0 900 600" width="900" height="600" xmlns="http://www.w3.org/2000/svg" xmlns:xlink="http://www.w3.org/1999/xlink" version="1.1"><g><g transform="translate(39 483)"><path d="M18.9 -22.5C24.3 -13.5 28.3 -6.8 28.3 0C28.2 6.7 24.1 13.3 18.7 22.1C13.3 30.8 6.7 41.7 -0.1 41.8C-6.8 41.9 -13.6 31.1 -21.8 22.4C-29.9 13.6 -39.5 6.8 -40.2 -0.7C-40.9 -8.2 -32.7 -16.3 -24.5 -25.3C-16.3 -34.2 -8.2 -44 -0.7 -43.3C6.8 -42.6 13.5 -31.4 18.9 -22.5Z" fill="#001122"></path></g><g transform="translate(347 263)"><path d="M22 -19.7C28.7 -15.3 34.5 -7.6 35 0.5C35.6 8.7 30.9 17.4 24.1 23C17.4 28.5 8.7 30.9 0.3 30.6C-8.1 30.3 -16.1 27.2 -20.7 21.7C-25.4 16.1 -26.5 8.1 -25.6 1C-24.6 -6.1 -21.5 -12.3 -16.9 -16.8C-12.3 -21.2 -6.1 -24 0.7 -24.8C7.6 -25.5 15.3 -24.2 22 -19.7Z" fill="#001122"></path></g><g transform="translate(136 386)"><path d="M17.3 -17.9C21.7 -12.9 24.1 -6.4 25.6 1.5C27.1 9.4 27.7 18.9 23.3 24.1C18.9 29.4 9.4 30.6 1.2 29.4C-7 28.2 -14.1 24.7 -21.7 19.4C-29.3 14.1 -37.4 7 -38.1 -0.7C-38.8 -8.4 -32 -16.8 -24.4 -21.8C-16.8 -26.8 -8.4 -28.4 -1 -27.5C6.4 -26.5 12.9 -22.9 17.3 -17.9Z" fill="#001122"></path></g><g transform="translate(84 67)"><path d="M13.9 -14.9C18.1 -9.7 21.7 -4.8 22.7 1C23.7 6.9 22.1 13.7 17.9 19.1C13.7 24.6 6.9 28.6 -0.1 28.6C-7 28.7 -14 24.9 -19.2 19.4C-24.3 14 -27.7 7 -28.3 -0.6C-28.8 -8.2 -26.7 -16.3 -21.5 -21.6C-16.3 -26.8 -8.2 -29.1 -1.7 -27.4C4.8 -25.8 9.7 -20.1 13.9 -14.9Z" fill="#001122"></path></g><g transform="translate(377 529)"><path d="M26.5 -25.2C33.2 -19.7 36.8 -9.9 35.6 -1.2C34.4 7.5 28.5 15 21.8 22.3C15 29.6 7.5 36.7 0.2 36.5C-7.1 36.3 -14.3 28.9 -21.2 21.6C-28.2 14.3 -34.9 7.1 -36.4 -1.5C-37.9 -10.1 -34.1 -20.2 -27.1 -25.7C-20.2 -31.2 -10.1 -32.1 -0.1 -32C9.9 -31.8 19.7 -30.7 26.5 -25.2Z" fill="#001122"></path></g><g transform="translate(707 559)"><path d="M23.2 -20.7C29.2 -17.2 32.6 -8.6 31.9 -0.6C31.3 7.3 26.6 14.7 20.6 20.7C14.7 26.8 7.3 31.6 -0.4 32C-8.1 32.4 -16.3 28.4 -20.1 22.3C-24 16.3 -23.6 8.1 -22.4 1.2C-21.2 -5.7 -19.1 -11.4 -15.3 -14.9C-11.4 -18.5 -5.7 -19.8 1.4 -21.2C8.6 -22.7 17.2 -24.2 23.2 -20.7Z" fill="#001122"></path></g><g transform="translate(228 80)"><path d="M19.1 -19.3C23.4 -14.7 24.8 -7.3 24.2 -0.6C23.7 6.2 21.1 12.3 16.7 16.4C12.3 20.5 6.2 22.4 0.2 22.2C-5.7 21.9 -11.4 19.5 -15.4 15.4C-19.4 11.4 -21.8 5.7 -23.5 -1.7C-25.2 -9.1 -26.3 -18.3 -22.3 -22.9C-18.3 -27.5 -9.1 -27.5 -0.9 -26.6C7.3 -25.7 14.7 -23.9 19.1 -19.3Z" fill="#001122"></path></g><g transform="translate(191 534)"><path d="M21.6 -24.1C26.8 -16.3 29.1 -8.2 28.9 -0.1C28.8 7.9 26.3 15.8 21.1 22.6C15.8 29.3 7.9 34.8 0.9 33.9C-6.2 33 -12.3 25.8 -16.5 19C-20.7 12.3 -22.9 6.2 -23.4 -0.5C-23.8 -7.1 -22.5 -14.2 -18.3 -22C-14.2 -29.8 -7.1 -38.3 0.5 -38.9C8.2 -39.4 16.3 -32 21.6 -24.1Z" fill="#001122"></path></g><g transform="translate(863 473)"><path d="M26.5 -25.3C34.3 -18.6 40.7 -9.3 39.4 -1.3C38.2 6.7 29.2 13.5 21.3 18.2C13.5 23 6.7 25.7 0.1 25.6C-6.6 25.5 -13.1 22.6 -20.9 17.9C-28.6 13.1 -37.5 6.6 -38.6 -1.2C-39.8 -8.9 -33.2 -17.7 -25.5 -24.5C-17.7 -31.2 -8.9 -35.8 0.2 -36C9.3 -36.2 18.6 -32.1 26.5 -25.3Z" fill="#001122"></path></g><g transform="translate(232 326)"><path d="M24.1 -26.5C29.4 -18.7 30.8 -9.4 31.6 0.8C32.4 11 32.7 22 27.4 27.3C22 32.6 11 32.3 1.9 30.3C-7.1 28.4 -14.3 24.9 -23 19.6C-31.7 14.3 -41.9 7.1 -42.8 -0.9C-43.7 -9 -35.3 -18 -26.6 -25.8C-18 -33.6 -9 -40.2 0.2 -40.4C9.4 -40.6 18.7 -34.4 24.1 -26.5Z" fill="#001122"></path></g><g transform="translate(787 392)"><path d="M21.9 -20.6C29.1 -14.7 36.1 -7.3 36.6 0.4C37 8.2 30.9 16.5 23.7 21.7C16.5 26.9 8.2 29.2 -0.1 29.2C-8.4 29.3 -16.7 27.2 -22 21.9C-27.3 16.7 -29.5 8.4 -27.9 1.6C-26.4 -5.2 -21 -10.5 -15.8 -16.4C-10.5 -22.3 -5.2 -29 1.1 -30C7.3 -31.1 14.7 -26.6 21.9 -20.6Z" fill="#001122"></path></g><g transform="translate(451 293)"><path d="M26.2 -24.3C32.4 -20 34.8 -10 33.2 -1.7C31.5 6.6 25.7 13.3 19.5 19.5C13.3 25.7 6.6 31.5 0.7 30.9C-5.3 30.2 -10.6 23 -16.7 16.8C-22.7 10.6 -29.6 5.3 -31.1 -1.5C-32.5 -8.2 -28.6 -16.4 -22.5 -20.7C-16.4 -25.1 -8.2 -25.5 0.9 -26.4C10 -27.3 20 -28.6 26.2 -24.3Z" fill="#001122"></path></g><g transform="translate(442 18)"><path d="M15.3 -13.7C20.4 -10.2 25.5 -5.1 27.3 1.8C29.1 8.6 27.5 17.2 22.3 23.3C17.2 29.4 8.6 33 0.2 32.8C-8.1 32.5 -16.3 28.5 -22.2 22.4C-28 16.3 -31.7 8.1 -30.2 1.5C-28.6 -5.1 -21.9 -10.2 -16 -13.7C-10.2 -17.3 -5.1 -19.4 0 -19.4C5.1 -19.4 10.2 -17.3 15.3 -13.7Z" fill="#001122"></path></g><g transform="translate(554 417)"><path d="M21.2 -23.2C26.1 -16.3 27.8 -8.2 28.7 0.9C29.6 9.9 29.6 19.8 24.7 23.9C19.8 28 9.9 26.3 -0.4 26.7C-10.7 27.1 -21.4 29.6 -29.1 25.5C-36.9 21.4 -41.8 10.7 -40.4 1.5C-38.9 -7.8 -31.1 -15.5 -23.3 -22.4C-15.5 -29.4 -7.8 -35.5 0.2 -35.7C8.2 -35.9 16.3 -30.2 21.2 -23.2Z" fill="#001122"></path></g><g transform="translate(626 59)"><path d="M25.6 -26.9C31 -20.1 31.9 -10.1 30.3 -1.5C28.8 7 25 14.1 19.5 20.3C14.1 26.6 7 32 -0.6 32.6C-8.2 33.2 -16.3 28.8 -24.8 22.6C-33.2 16.3 -42 8.2 -41.8 0.2C-41.7 -7.9 -32.6 -15.7 -24.2 -22.5C-15.7 -29.2 -7.9 -34.8 1.1 -36C10.1 -37.1 20.1 -33.6 25.6 -26.9Z" fill="#001122"></path></g><g transform="translate(686 263)"><path d="M15.8 -16.4C19.1 -12.4 19.6 -6.2 19.2 -0.5C18.7 5.3 17.3 10.5 13.9 14.8C10.5 19 5.3 22.2 -0.2 22.4C-5.7 22.6 -11.4 19.9 -14.3 15.6C-17.2 11.4 -17.3 5.7 -16.8 0.5C-16.2 -4.7 -15.1 -9.3 -12.2 -13.3C-9.3 -17.3 -4.7 -20.6 0.8 -21.4C6.2 -22.2 12.4 -20.4 15.8 -16.4Z" fill="#001122"></path></g><g transform="translate(107 199)"><path d="M17.8 -15.9C24.3 -11.3 31.7 -5.7 32.2 0.6C32.8 6.8 26.6 13.6 20.1 18.5C13.6 23.5 6.8 26.6 -0.1 26.6C-6.9 26.7 -13.9 23.8 -18.8 18.8C-23.7 13.9 -26.6 6.9 -25.7 1C-24.7 -5 -19.9 -10 -14.9 -14.6C-10 -19.1 -5 -23.2 0.3 -23.5C5.7 -23.9 11.3 -20.4 17.8 -15.9Z" fill="#001122"></path></g><g transform="translate(812 95)"><path d="M25.7 -23.4C32.7 -18.7 37.3 -9.4 36.9 -0.4C36.5 8.6 31.1 17.1 24.1 23C17.1 28.8 8.6 32 -0.6 32.6C-9.7 33.2 -19.4 31.2 -24.8 25.3C-30.2 19.4 -31.3 9.7 -30 1.3C-28.7 -7.1 -25 -14.3 -19.7 -18.9C-14.3 -23.5 -7.1 -25.7 1.1 -26.8C9.4 -27.9 18.7 -28 25.7 -23.4Z" fill="#001122"></path></g><g transform="translate(510 173)"><path d="M17.9 -21.5C22.6 -13.2 25.4 -6.6 27.7 2.3C30 11.2 31.8 22.4 27.1 30.9C22.4 39.4 11.2 45.3 1.8 43.5C-7.6 41.7 -15.2 32.3 -21.9 23.8C-28.5 15.2 -34.2 7.6 -35.3 -1.1C-36.3 -9.7 -32.8 -19.5 -26.1 -27.7C-19.5 -36 -9.7 -42.8 -1.6 -41.2C6.6 -39.6 13.2 -29.7 17.9 -21.5Z" fill="#001122"></path></g><g transform="translate(7 374)"><path d="M15.3 -14.5C20.2 -10.4 24.9 -5.2 25.2 0.3C25.6 5.9 21.6 11.8 16.7 15.9C11.8 20 5.9 22.3 -0.9 23.2C-7.8 24.2 -15.5 23.7 -20.3 19.6C-25.1 15.5 -26.9 7.8 -26.6 0.3C-26.4 -7.3 -24.1 -14.5 -19.3 -18.6C-14.5 -22.7 -7.3 -23.7 -1 -22.7C5.2 -21.6 10.4 -18.6 15.3 -14.5Z" fill="#001122"></path></g><g transform="translate(815 240)"><path d="M22.6 -21.6C28.6 -16.5 32.5 -8.2 33.7 1.2C34.9 10.6 33.3 21.2 27.3 26.7C21.2 32.1 10.6 32.4 2.4 30C-5.9 27.6 -11.7 22.6 -19.4 17.2C-27.1 11.7 -36.7 5.9 -39.2 -2.5C-41.8 -10.9 -37.3 -21.9 -29.6 -26.9C-21.9 -32 -10.9 -31.2 -1.3 -29.9C8.2 -28.5 16.5 -26.6 22.6 -21.6Z" fill="#001122"></path></g><g transform="translate(577 542)"><path d="M20.7 -21C28.4 -13 37.2 -6.5 37.5 0.3C37.7 7.1 29.4 14.1 21.8 19.7C14.1 25.2 7.1 29.3 -0.6 30C-8.3 30.6 -16.7 27.8 -23.1 22.2C-29.6 16.7 -34.1 8.3 -35.5 -1.4C-36.9 -11.1 -35.1 -22.2 -28.7 -30.1C-22.2 -38 -11.1 -42.7 -2.3 -40.5C6.5 -38.2 13 -28.9 20.7 -21Z" fill="#001122"></path></g><g transform="translate(313 403)"><path d="M14.1 -14.2C17.2 -11 17.9 -5.5 18 0.1C18.1 5.7 17.6 11.4 14.5 15.9C11.4 20.5 5.7 23.9 0.5 23.4C-4.7 22.8 -9.3 18.4 -14.5 13.9C-19.7 9.3 -25.4 4.7 -26.2 -0.9C-27.1 -6.4 -23.2 -12.9 -18 -16.1C-12.9 -19.3 -6.4 -19.3 -0.5 -18.8C5.5 -18.3 11 -17.4 14.1 -14.2Z" fill="#001122"></path></g><g transform="translate(469 599)"><path d="M17.4 -18.5C21.4 -13.3 22.7 -6.7 23.8 1C24.8 8.8 25.6 17.5 21.6 21.5C17.5 25.5 8.8 24.8 0.7 24.1C-7.4 23.4 -14.8 22.8 -20.8 18.8C-26.8 14.8 -31.3 7.4 -32.2 -0.9C-33.1 -9.2 -30.4 -18.5 -24.4 -23.6C-18.5 -28.8 -9.2 -30 -1.3 -28.7C6.7 -27.4 13.3 -23.7 17.4 -18.5Z" fill="#001122"></path></g><g transform="translate(335 46)"><path d="M23.9 -21.2C32.3 -15.5 41.4 -7.7 41 -0.4C40.6 7 30.8 14 22.4 20.1C14 26.3 7 31.6 0 31.6C-7.1 31.6 -14.1 26.4 -20.6 20.3C-27 14.1 -32.8 7.1 -34.8 -2C-36.7 -11 -34.8 -22 -28.4 -27.7C-22 -33.5 -11 -34 -1.6 -32.3C7.7 -30.7 15.5 -27 23.9 -21.2Z" fill="#001122"></path></g><g transform="translate(219 215)"><path d="M23.2 -23C26.9 -19.4 24.6 -9.7 24.5 -0.2C24.3 9.4 26.2 18.8 22.5 23.9C18.8 29 9.4 29.9 1.8 28.1C-5.7 26.3 -11.5 21.7 -16.6 16.6C-21.8 11.5 -26.4 5.7 -26.9 -0.5C-27.3 -6.7 -23.6 -13.3 -18.5 -16.9C-13.3 -20.5 -6.7 -21 1.5 -22.5C9.7 -24.1 19.4 -26.6 23.2 -23Z" fill="#001122"></path></g><g transform="translate(825 581)"><path d="M26.3 -25.4C33.8 -18.8 39.4 -9.4 39 -0.5C38.5 8.4 31.9 16.9 24.4 22.8C16.9 28.8 8.4 32.2 -0.7 32.9C-9.7 33.6 -19.5 31.4 -24.4 25.4C-29.2 19.5 -29.2 9.7 -29.8 -0.6C-30.4 -10.9 -31.5 -21.8 -26.6 -28.4C-21.8 -35 -10.9 -37.4 -0.7 -36.7C9.4 -36 18.8 -32.1 26.3 -25.4Z" fill="#001122"></path></g><g transform="translate(673 414)"><path d="M14.6 -14.3C18.7 -10.6 21.4 -5.3 23 1.6C24.6 8.5 25 16.9 20.9 23C16.9 29.1 8.5 32.8 0.6 32.1C-7.2 31.5 -14.3 26.5 -18.4 20.4C-22.5 14.3 -23.5 7.2 -23.6 -0.1C-23.8 -7.4 -23 -14.8 -18.9 -18.4C-14.8 -22.1 -7.4 -22.1 -1 -21C5.3 -20 10.6 -17.9 14.6 -14.3Z" fill="#001122"></path></g><g transform="translate(42 592)"><path d="M21.2 -19.9C29.4 -13 39.4 -6.5 40.2 0.9C41.1 8.2 32.9 16.4 24.6 20.8C16.4 25.1 8.2 25.6 0.7 24.9C-6.8 24.2 -13.6 22.3 -19.7 18C-25.8 13.6 -31.2 6.8 -32.6 -1.4C-33.9 -9.5 -31.2 -19 -25.1 -26C-19 -32.9 -9.5 -37.3 -1.5 -35.8C6.5 -34.2 13 -26.8 21.2 -19.9Z" fill="#001122"></path></g><g transform="translate(570 269)"><path d="M13.9 -15C17.6 -10.3 19.7 -5.1 21.6 1.8C23.4 8.8 24.9 17.6 21.3 23.1C17.6 28.5 8.8 30.6 0.7 29.8C-7.4 29.1 -14.8 25.6 -18.8 20.2C-22.9 14.8 -23.6 7.4 -23.9 -0.3C-24.2 -7.9 -24 -15.9 -19.9 -20.6C-15.9 -25.3 -7.9 -26.8 -1.4 -25.4C5.1 -24 10.3 -19.7 13.9 -15Z" fill="#001122"></path></g><g transform="translate(898 28)"><path d="M23.9 -24C31.3 -16.5 37.9 -8.3 39.7 1.8C41.5 11.8 38.5 23.7 31.1 29.2C23.7 34.7 11.8 33.9 0 33.8C-11.8 33.8 -23.6 34.6 -28.5 29.1C-33.5 23.6 -31.6 11.8 -28.8 2.8C-26 -6.2 -22.4 -12.5 -17.4 -20C-12.5 -27.4 -6.2 -36.1 1 -37.1C8.3 -38.1 16.5 -31.5 23.9 -24Z" fill="#001122"></path></g><g transform="translate(443 431)"><path d="M19.2 -18.6C25.3 -13.2 30.8 -6.6 31.2 0.4C31.6 7.4 26.8 14.7 20.8 21.3C14.7 27.9 7.4 33.7 -0.1 33.8C-7.6 33.9 -15.1 28.3 -22.5 21.7C-29.9 15.1 -37.1 7.6 -36.1 0.9C-35.2 -5.7 -26.1 -11.4 -18.8 -16.8C-11.4 -22.3 -5.7 -27.5 0.4 -27.9C6.6 -28.4 13.2 -24.1 19.2 -18.6Z" fill="#001122"></path></g><g transform="translate(897 339)"><path d="M18.3 -20.2C21.2 -15.3 19.4 -7.7 19 -0.3C18.7 7 19.8 13.9 16.9 18.1C13.9 22.2 7 23.4 -0.4 23.9C-7.8 24.3 -15.7 23.9 -19.7 19.8C-23.7 15.7 -23.9 7.8 -23 0.9C-22.2 -6.1 -20.3 -12.2 -16.3 -17.1C-12.2 -22 -6.1 -25.6 0.8 -26.3C7.7 -27.1 15.3 -25.1 18.3 -20.2Z" fill="#001122"></path></g><g transform="translate(742 7)"><path d="M17.5 -17.5C24 -10.9 31.6 -5.5 33.7 2.1C35.7 9.6 32.3 19.2 25.7 26.2C19.2 33.2 9.6 37.6 -0.2 37.8C-10.1 38.1 -20.1 34.1 -24.9 27.1C-29.7 20.1 -29.2 10.1 -26.8 2.4C-24.3 -5.2 -20 -10.4 -15.2 -17C-10.4 -23.5 -5.2 -31.4 0.1 -31.6C5.5 -31.7 10.9 -24.1 17.5 -17.5Z" fill="#001122"></path></g><g transform="translate(313 153)"><path d="M21.7 -20.6C27.8 -15.7 32.1 -7.8 31.6 -0.5C31.1 6.9 25.9 13.8 19.9 20.2C13.8 26.6 6.9 32.5 0.2 32.3C-6.4 32.1 -12.9 25.7 -18.5 19.3C-24.1 12.9 -28.9 6.4 -29.5 -0.6C-30 -7.6 -26.3 -15.1 -20.7 -20.1C-15.1 -25 -7.6 -27.4 0.1 -27.5C7.8 -27.7 15.7 -25.6 21.7 -20.6Z" fill="#001122"></path></g><g transform="translate(625 173)"><path d="M21.6 -19.7C29.2 -13.9 37.5 -7 36.9 -0.6C36.4 5.8 27 11.7 19.3 16.8C11.7 22 5.8 26.4 -2.3 28.7C-10.4 30.9 -20.8 31.1 -26.9 25.9C-32.9 20.8 -34.7 10.4 -34 0.7C-33.4 -9 -30.3 -18.1 -24.2 -23.9C-18.1 -29.7 -9 -32.3 -1 -31.2C7 -30.2 13.9 -25.5 21.6 -19.7Z" fill="#001122"></path></g><g transform="translate(5 254)"><path d="M22.9 -20.6C28.8 -17 32.2 -8.5 30.2 -2C28.2 4.5 20.8 9 14.9 12.5C9 16 4.5 18.5 -1.3 19.8C-7.1 21.1 -14.1 21.1 -18.2 17.6C-22.3 14.1 -23.5 7.1 -23.5 -0.1C-23.6 -7.2 -22.5 -14.3 -18.4 -18C-14.3 -21.6 -7.2 -21.6 0.7 -22.2C8.5 -22.9 17 -24.2 22.9 -20.6Z" fill="#001122"></path></g></g></svg>