<svg id="visual" viewBox="0 0 900 600" width="900" height="600" xmlns="http://www.w3.org/2000/svg" xmlns:xlink="http://www.w3.org/1999/xlink" version="1.1"><rect x="0" y="0" width="900" height="600" fill="#FFFFFF"></rect><defs><linearGradient id="grad1_0" x1="33.3%" y1="0%" x2="100%" y2="100%"><stop offset="20%" stop-color="#ff0066" stop-opacity="1"></stop><stop offset="80%" stop-color="#ff0066" stop-opacity="1"></stop></linearGradient></defs><defs><linearGradient id="grad1_1" x1="33.3%" y1="0%" x2="100%" y2="100%"><stop offset="20%" stop-color="#ff0066" stop-opacity="1"></stop><stop offset="80%" stop-color="#ff547d" stop-opacity="1"></stop></linearGradient></defs><defs><linearGradient id="grad1_2" x1="33.3%" y1="0%" x2="100%" y2="100%"><stop offset="20%" stop-color="#ff7d96" stop-opacity="1"></stop><stop offset="80%" stop-color="#ff547d" stop-opacity="1"></stop></linearGradient></defs><defs><linearGradient id="grad1_3" x1="33.3%" y1="0%" x2="100%" y2="100%"><stop offset="20%" stop-color="#ff7d96" stop-opacity="1"></stop><stop offset="80%" stop-color="#ffa0af" stop-opacity="1"></stop></linearGradient></defs><defs><linearGradient id="grad1_4" x1="33.3%" y1="0%" x2="100%" y2="100%"><stop offset="20%" stop-color="#ffc0c9" stop-opacity="1"></stop><stop offset="80%" stop-color="#ffa0af" stop-opacity="1"></stop></linearGradient></defs><defs><linearGradient id="grad1_5" x1="33.3%" y1="0%" x2="100%" y2="100%"><stop offset="20%" stop-color="#ffc0c9" stop-opacity="1"></stop><stop offset="80%" stop-color="#ffe0e4" stop-opacity="1"></stop></linearGradient></defs><defs><linearGradient id="grad1_6" x1="33.3%" y1="0%" x2="100%" y2="100%"><stop offset="20%" stop-color="#ffffff" stop-opacity="1"></stop><stop offset="80%" stop-color="#ffe0e4" stop-opacity="1"></stop></linearGradient></defs><defs><linearGradient id="grad2_0" x1="0%" y1="0%" x2="66.7%" y2="100%"><stop offset="20%" stop-color="#ff0066" stop-opacity="1"></stop><stop offset="80%" stop-color="#ff0066" stop-opacity="1"></stop></linearGradient></defs><defs><linearGradient id="grad2_1" x1="0%" y1="0%" x2="66.7%" y2="100%"><stop offset="20%" stop-color="#ff547d" stop-opacity="1"></stop><stop offset="80%" stop-color="#ff0066" stop-opacity="1"></stop></linearGradient></defs><defs><linearGradient id="grad2_2" x1="0%" y1="0%" x2="66.7%" y2="100%"><stop offset="20%" stop-color="#ff547d" stop-opacity="1"></stop><stop offset="80%" stop-color="#ff7d96" stop-opacity="1"></stop></linearGradient></defs><defs><linearGradient id="grad2_3" x1="0%" y1="0%" x2="66.7%" y2="100%"><stop offset="20%" stop-color="#ffa0af" stop-opacity="1"></stop><stop offset="80%" stop-color="#ff7d96" stop-opacity="1"></stop></linearGradient></defs><defs><linearGradient id="grad2_4" x1="0%" y1="0%" x2="66.7%" y2="100%"><stop offset="20%" stop-color="#ffa0af" stop-opacity="1"></stop><stop offset="80%" stop-color="#ffc0c9" stop-opacity="1"></stop></linearGradient></defs><defs><linearGradient id="grad2_5" x1="0%" y1="0%" x2="66.7%" y2="100%"><stop offset="20%" stop-color="#ffe0e4" stop-opacity="1"></stop><stop offset="80%" stop-color="#ffc0c9" stop-opacity="1"></stop></linearGradient></defs><defs><linearGradient id="grad2_6" x1="0%" y1="0%" x2="66.7%" y2="100%"><stop offset="20%" stop-color="#ffe0e4" stop-opacity="1"></stop><stop offset="80%" stop-color="#ffffff" stop-opacity="1"></stop></linearGradient></defs><g transform="translate(900, 0)"><path d="M0 459.7C-51.7 460.9 -103.4 462.1 -142.1 437.2C-180.7 412.3 -206.4 361.2 -236.3 325.2C-266.2 289.3 -300.2 268.5 -329.3 239.2C-358.3 210 -382.3 172.3 -403.2 131C-424.2 89.7 -441.9 44.9 -459.7 0L0 0Z" fill="#fff0f1"></path><path d="M0 394C-44.3 395.1 -88.6 396.1 -121.8 374.7C-154.9 353.4 -176.9 309.6 -202.5 278.8C-228.1 248 -257.3 230.1 -282.2 205.1C-307.1 180 -327.7 147.7 -345.6 112.3C-363.6 76.9 -378.8 38.5 -394 0L0 0Z" fill="#ffd0d6"></path><path d="M0 328.4C-36.9 329.2 -73.8 330.1 -101.5 312.3C-129.1 294.5 -147.4 258 -168.8 232.3C-190.1 206.6 -214.4 191.8 -235.2 170.9C-255.9 150 -273.1 123.1 -288 93.6C-303 64.1 -315.7 32.1 -328.4 0L0 0Z" fill="#ffb0bc"></path><path d="M0 262.7C-29.5 263.4 -59.1 264.1 -81.2 249.8C-103.3 235.6 -118 206.4 -135 185.8C-152.1 165.3 -171.6 153.4 -188.2 136.7C-204.8 120 -218.5 98.5 -230.4 74.9C-242.4 51.3 -252.5 25.6 -262.7 0L0 0Z" fill="#ff8fa2"></path><path d="M0 197C-22.2 197.5 -44.3 198.1 -60.9 187.4C-77.5 176.7 -88.5 154.8 -101.3 139.4C-114.1 124 -128.7 115.1 -141.1 102.5C-153.6 90 -163.9 73.8 -172.8 56.2C-181.8 38.5 -189.4 19.2 -197 0L0 0Z" fill="#ff6a89"></path><path d="M0 131.3C-14.8 131.7 -29.5 132 -40.6 124.9C-51.6 117.8 -59 103.2 -67.5 92.9C-76 82.7 -85.8 76.7 -94.1 68.4C-102.4 60 -109.2 49.2 -115.2 37.4C-121.2 25.6 -126.3 12.8 -131.3 0L0 0Z" fill="#ff3972"></path><path d="M0 65.7C-7.4 65.8 -14.8 66 -20.3 62.5C-25.8 58.9 -29.5 51.6 -33.8 46.5C-38 41.3 -42.9 38.4 -47 34.2C-51.2 30 -54.6 24.6 -57.6 18.7C-60.6 12.8 -63.1 6.4 -65.7 0L0 0Z" fill="#ff0066"></path></g><g transform="translate(0, 600)"><path d="M0 -459.7C36.7 -422.9 73.3 -386.2 123 -378.5C172.7 -370.9 235.3 -392.4 270.2 -371.9C305.1 -351.4 312.1 -289 338.2 -245.7C364.2 -202.4 409.3 -178.4 432.7 -140.6C456.2 -102.9 457.9 -51.4 459.7 0L0 0Z" fill="#fff0f1"></path><path d="M0 -394C31.4 -362.5 62.8 -331 105.4 -324.4C148 -317.9 201.7 -336.3 231.6 -318.8C261.5 -301.2 267.5 -247.7 289.9 -210.6C312.2 -173.5 350.8 -152.9 370.9 -120.5C391 -88.2 392.5 -44.1 394 0L0 0Z" fill="#ffd0d6"></path><path d="M0 -328.4C26.2 -302.1 52.4 -275.8 87.8 -270.4C123.3 -264.9 168.1 -280.3 193 -265.7C217.9 -251 222.9 -206.4 241.5 -175.5C260.2 -144.6 292.4 -127.4 309.1 -100.4C325.8 -73.5 327.1 -36.7 328.4 0L0 0Z" fill="#ffb0bc"></path><path d="M0 -262.7C20.9 -241.7 41.9 -220.7 70.3 -216.3C98.7 -211.9 134.5 -224.2 154.4 -212.5C174.3 -200.8 178.3 -165.1 193.2 -140.4C208.1 -115.7 233.9 -101.9 247.3 -80.3C260.7 -58.8 261.7 -29.4 262.7 0L0 0Z" fill="#ff8fa2"></path><path d="M0 -197C15.7 -181.3 31.4 -165.5 52.7 -162.2C74 -159 100.9 -168.2 115.8 -159.4C130.7 -150.6 133.8 -123.8 144.9 -105.3C156.1 -86.8 175.4 -76.4 185.5 -60.3C195.5 -44.1 196.3 -22 197 0L0 0Z" fill="#ff6a89"></path><path d="M0 -131.3C10.5 -120.8 20.9 -110.3 35.1 -108.1C49.3 -106 67.2 -112.1 77.2 -106.3C87.2 -100.4 89.2 -82.6 96.6 -70.2C104.1 -57.8 116.9 -51 123.6 -40.2C130.3 -29.4 130.8 -14.7 131.3 0L0 0Z" fill="#ff3972"></path><path d="M0 -65.7C5.2 -60.4 10.5 -55.2 17.6 -54.1C24.7 -53 33.6 -56.1 38.6 -53.1C43.6 -50.2 44.6 -41.3 48.3 -35.1C52 -28.9 58.5 -25.5 61.8 -20.1C65.2 -14.7 65.4 -7.3 65.7 0L0 0Z" fill="#ff0066"></path></g></svg>