<svg id="visual" viewBox="0 0 900 600" width="900" height="600" xmlns="http://www.w3.org/2000/svg" xmlns:xlink="http://www.w3.org/1999/xlink" version="1.1"><g><g transform="translate(53 167)"><path d="M27.1 -28.1C33.2 -20.9 35.1 -10.4 34.3 -0.8C33.4 8.8 29.9 17.5 23.7 26.1C17.5 34.7 8.8 43 -1 44C-10.7 45 -21.4 38.6 -27.6 30C-33.7 21.4 -35.3 10.7 -36.1 -0.9C-37 -12.4 -37.1 -24.8 -31 -32.1C-24.8 -39.3 -12.4 -41.3 -1 -40.3C10.4 -39.3 20.9 -35.3 27.1 -28.1Z" fill="#FF0066"></path></g><g transform="translate(700 422)"><path d="M30.8 -27.8C39.4 -22.2 45.6 -11.1 43.9 -1.6C42.3 7.8 32.9 15.6 24.2 20.4C15.6 25.1 7.8 26.9 -1.4 28.3C-10.7 29.7 -21.4 30.9 -29.7 26.1C-38.1 21.4 -44.1 10.7 -42.6 1.5C-41.1 -7.6 -32 -15.3 -23.6 -20.8C-15.3 -26.4 -7.6 -30 1.7 -31.7C11.1 -33.4 22.2 -33.3 30.8 -27.8Z" fill="#FF0066"></path></g><g transform="translate(324 171)"><path d="M19.5 -20.7C24.5 -14.6 27.1 -7.3 26.2 -0.9C25.3 5.5 20.9 11 16 17.6C11 24.1 5.5 31.8 -0.5 32.2C-6.4 32.7 -12.8 25.9 -19.7 19.4C-26.6 12.8 -33.9 6.4 -34.9 -1C-35.9 -8.4 -30.5 -16.8 -23.6 -22.9C-16.8 -29 -8.4 -32.8 -0.6 -32.2C7.3 -31.7 14.6 -26.8 19.5 -20.7Z" fill="#FF0066"></path></g><g transform="translate(782 234)"><path d="M22.5 -21.7C28.6 -16.3 32.7 -8.2 31.9 -0.8C31.2 6.6 25.5 13.3 19.4 18.1C13.3 22.8 6.6 25.8 -0.5 26.3C-7.7 26.9 -15.5 25 -19.5 20.2C-23.6 15.5 -24 7.7 -24.6 -0.6C-25.2 -8.9 -25.9 -17.7 -21.8 -23C-17.7 -28.4 -8.9 -30.2 -0.3 -29.8C8.2 -29.5 16.3 -27 22.5 -21.7Z" fill="#FF0066"></path></g><g transform="translate(629 258)"><path d="M26.1 -26.8C31.1 -21.2 30.4 -10.6 28.6 -1.8C26.8 7 23.8 13.9 18.9 19.4C13.9 24.9 7 29 -0.2 29.2C-7.3 29.3 -14.6 25.7 -19 20.1C-23.4 14.6 -24.8 7.3 -25.7 -0.9C-26.5 -9.1 -26.9 -18.2 -22.5 -23.8C-18.2 -29.3 -9.1 -31.5 0.8 -32.2C10.6 -33 21.2 -32.3 26.1 -26.8Z" fill="#FF0066"></path></g><g transform="translate(138 281)"><path d="M18.9 -19.2C23 -14.8 23.9 -7.4 23.2 -0.7C22.5 5.9 20.2 11.9 16 17.7C11.9 23.4 5.9 29 0.1 29C-5.8 28.9 -11.6 23.1 -16.5 17.4C-21.4 11.6 -25.4 5.8 -25.4 0.1C-25.3 -5.6 -21.1 -11.3 -16.2 -15.7C-11.3 -20.1 -5.6 -23.3 0.9 -24.2C7.4 -25.1 14.8 -23.6 18.9 -19.2Z" fill="#FF0066"></path></g><g transform="translate(22 363)"><path d="M26.2 -22.7C34.4 -17.9 42 -8.9 40.6 -1.4C39.2 6.1 28.8 12.2 20.5 18C12.2 23.8 6.1 29.3 -0.8 30.1C-7.7 30.9 -15.4 27 -21.1 21.2C-26.8 15.4 -30.6 7.7 -31.8 -1.2C-32.9 -10.1 -31.6 -20.1 -25.8 -24.9C-20.1 -29.7 -10.1 -29.3 -0.6 -28.7C8.9 -28.2 17.9 -27.5 26.2 -22.7Z" fill="#FF0066"></path></g><g transform="translate(544 13)"><path d="M21.6 -19C29.7 -13.5 39.2 -6.7 40.6 1.4C42 9.5 35.3 19 27.1 24.8C19 30.7 9.5 32.8 0.8 32C-8 31.3 -16 27.6 -23.8 21.8C-31.6 16 -39.3 8 -38.5 0.8C-37.7 -6.5 -28.5 -12.9 -20.7 -18.4C-12.9 -24 -6.5 -28.6 0.1 -28.7C6.7 -28.8 13.5 -24.5 21.6 -19Z" fill="#FF0066"></path></g><g transform="translate(157 501)"><path d="M23.7 -23.8C31.2 -16.3 37.9 -8.1 37.9 0C38 8.2 31.2 16.4 23.8 23.1C16.4 29.7 8.2 35 0.2 34.8C-7.8 34.6 -15.6 29 -21.3 22.3C-26.9 15.6 -30.4 7.8 -31.6 -1.2C-32.8 -10.1 -31.6 -20.3 -25.9 -27.8C-20.3 -35.3 -10.1 -40.2 -1 -39.2C8.1 -38.2 16.3 -31.3 23.7 -23.8Z" fill="#FF0066"></path></g><g transform="translate(380 513)"><path d="M19.2 -18.8C25.1 -13.3 30.1 -6.7 30.5 0.3C30.8 7.3 26.4 14.6 20.5 21.2C14.6 27.7 7.3 33.5 -0.9 34.4C-9 35.2 -18 31.2 -23.5 24.6C-28.9 18 -30.8 9 -31.6 -0.8C-32.5 -10.7 -32.3 -21.4 -26.9 -26.9C-21.4 -32.3 -10.7 -32.4 -2 -30.4C6.7 -28.4 13.3 -24.2 19.2 -18.8Z" fill="#FF0066"></path></g><g transform="translate(378 41)"><path d="M16.4 -15C20.8 -12.1 23.5 -6 23.7 0.2C23.9 6.4 21.6 12.8 17.2 17.6C12.8 22.4 6.4 25.5 0.2 25.3C-6 25.1 -11.9 21.5 -17.6 16.7C-23.4 11.9 -28.8 6 -27.9 0.9C-27 -4.1 -19.7 -8.3 -14 -11.2C-8.3 -14.2 -4.1 -16 0.9 -16.9C6 -17.9 12.1 -18 16.4 -15Z" fill="#FF0066"></path></g><g transform="translate(298 280)"><path d="M16.7 -18.4C21.6 -11.8 25.6 -5.9 27 1.4C28.4 8.7 27.2 17.3 22.3 21.9C17.3 26.5 8.7 26.9 -0.1 27C-8.8 27.1 -17.6 26.7 -23.9 22.2C-30.3 17.6 -34.1 8.8 -33.8 0.4C-33.4 -8.1 -28.8 -16.2 -22.5 -22.8C-16.2 -29.4 -8.1 -34.5 -1.1 -33.4C5.9 -32.3 11.8 -25 16.7 -18.4Z" fill="#FF0066"></path></g><g transform="translate(181 130)"><path d="M18.3 -22C23.2 -13.4 26.3 -6.7 28.7 2.4C31.1 11.5 32.8 23 27.9 30.7C23 38.5 11.5 42.5 2.6 39.9C-6.3 37.3 -12.6 28.1 -18.7 20.3C-24.8 12.6 -30.8 6.3 -33.3 -2.5C-35.9 -11.3 -34.9 -22.6 -28.8 -31.3C-22.6 -39.9 -11.3 -45.8 -2.3 -43.5C6.7 -41.2 13.4 -30.6 18.3 -22Z" fill="#FF0066"></path></g><g transform="translate(841 449)"><path d="M22.5 -22.3C27.1 -17.9 27.4 -9 27.3 -0.1C27.2 8.8 26.8 17.5 22.2 21C17.5 24.4 8.8 22.5 -0.2 22.7C-9.1 22.8 -18.3 25.1 -22.3 21.7C-26.3 18.3 -25.2 9.1 -24.3 0.9C-23.4 -7.4 -22.8 -14.7 -18.7 -19.1C-14.7 -23.4 -7.4 -24.8 0.8 -25.6C9 -26.4 17.9 -26.6 22.5 -22.3Z" fill="#FF0066"></path></g><g transform="translate(493 335)"><path d="M14.9 -14.4C20.2 -9.7 25.9 -4.8 28 2.1C30.1 9 28.6 18 23.3 23.1C18 28.1 9 29.2 0.1 29.1C-8.8 29.1 -17.7 27.8 -21.4 22.7C-25 17.7 -23.5 8.8 -21.7 1.8C-19.9 -5.2 -17.8 -10.4 -14.1 -15.1C-10.4 -19.8 -5.2 -24 -0.2 -23.8C4.8 -23.6 9.7 -19.1 14.9 -14.4Z" fill="#FF0066"></path></g><g transform="translate(732 85)"><path d="M18.1 -16.9C23 -13.2 26.2 -6.6 25.3 -0.9C24.4 4.8 19.4 9.5 14.4 13.1C9.5 16.6 4.8 18.9 0 18.9C-4.7 18.8 -9.3 16.4 -14.2 12.9C-19.1 9.3 -24.1 4.7 -25.9 -1.8C-27.6 -8.2 -26.1 -16.4 -21.2 -20.1C-16.4 -23.8 -8.2 -23 -0.8 -22.2C6.6 -21.4 13.2 -20.6 18.1 -16.9Z" fill="#FF0066"></path></g><g transform="translate(506 572)"><path d="M14.9 -13.2C20.7 -9 28 -4.5 28.9 0.9C29.7 6.2 24.2 12.4 18.3 18.4C12.4 24.3 6.2 30 -0.2 30.1C-6.6 30.3 -13.1 25 -17.9 19C-22.8 13.1 -25.9 6.6 -26.5 -0.6C-27.2 -7.8 -25.3 -15.7 -20.5 -19.9C-15.7 -24.1 -7.8 -24.6 -1.7 -23C4.5 -21.3 9 -17.4 14.9 -13.2Z" fill="#FF0066"></path></g><g transform="translate(60 558)"><path d="M18.1 -17.5C24.2 -12.1 30.3 -6 31 0.7C31.8 7.5 27.2 15.1 21.1 22C15.1 28.9 7.5 35.2 1 34.2C-5.6 33.3 -11.2 25 -18.4 18.1C-25.7 11.2 -34.6 5.6 -34.8 -0.1C-34.9 -5.8 -26.2 -11.7 -19 -17.1C-11.7 -22.6 -5.8 -27.6 0.1 -27.7C6 -27.8 12.1 -23 18.1 -17.5Z" fill="#FF0066"></path></g><g transform="translate(23 6)"><path d="M19.4 -18.7C25 -13.7 29.4 -6.9 29 -0.4C28.5 6 23.2 12 17.6 15.8C12 19.6 6 21.3 0.5 20.8C-5 20.3 -10.1 17.7 -13.1 13.9C-16.1 10.1 -17.2 5 -17.6 -0.4C-17.9 -5.7 -17.6 -11.5 -14.5 -16.5C-11.5 -21.4 -5.7 -25.6 0.6 -26.2C6.9 -26.7 13.7 -23.7 19.4 -18.7Z" fill="#FF0066"></path></g><g transform="translate(270 559)"><path d="M15.4 -15.1C21.2 -9.5 28.1 -4.8 28.7 0.6C29.4 6.1 23.8 12.1 18 18.3C12.1 24.4 6.1 30.6 0.1 30.5C-5.8 30.3 -11.6 23.9 -15.1 17.8C-18.6 11.6 -19.7 5.8 -19.4 0.3C-19 -5.2 -17.3 -10.3 -13.8 -15.8C-10.3 -21.3 -5.2 -27.2 -0.2 -27C4.8 -26.8 9.5 -20.6 15.4 -15.1Z" fill="#FF0066"></path></g><g transform="translate(769 560)"><path d="M18.1 -19.5C21.5 -14.7 20.9 -7.4 20.2 -0.8C19.4 5.8 18.5 11.7 15.1 16.7C11.7 21.6 5.8 25.7 -0.1 25.9C-6.1 26 -12.2 22.2 -18.3 17.2C-24.4 12.2 -30.5 6.1 -31.5 -1.1C-32.6 -8.2 -28.6 -16.5 -22.5 -21.3C-16.5 -26.1 -8.2 -27.5 -0.4 -27C7.4 -26.6 14.7 -24.3 18.1 -19.5Z" fill="#FF0066"></path></g><g transform="translate(239 21)"><path d="M23.3 -23.5C29.3 -17.3 32.6 -8.6 32.2 -0.4C31.8 7.9 27.7 15.8 21.8 21.9C15.8 28 7.9 32.3 0 32.2C-7.8 32.2 -15.6 27.8 -21.4 21.7C-27.2 15.6 -30.9 7.8 -30.2 0.7C-29.6 -6.4 -24.5 -12.9 -18.7 -19.1C-12.9 -25.3 -6.4 -31.3 1.1 -32.4C8.6 -33.5 17.3 -29.7 23.3 -23.5Z" fill="#FF0066"></path></g><g transform="translate(370 396)"><path d="M14.4 -15.3C17.6 -11.2 18.4 -5.6 19.2 0.9C20.1 7.3 21.1 14.7 17.9 20C14.7 25.4 7.3 28.8 1 27.8C-5.3 26.8 -10.6 21.3 -15.4 16C-20.2 10.6 -24.4 5.3 -24.9 -0.5C-25.3 -6.2 -22 -12.4 -17.2 -16.5C-12.4 -20.6 -6.2 -22.5 -0.3 -22.2C5.6 -21.9 11.2 -19.4 14.4 -15.3Z" fill="#FF0066"></path></g><g transform="translate(882 5)"><path d="M17.1 -14.9C23.7 -10.5 31.6 -5.3 31.5 -0.2C31.3 4.9 23.1 9.9 16.5 15.8C9.9 21.8 4.9 28.7 -1.6 30.3C-8.2 31.9 -16.4 28.3 -20.1 22.3C-23.8 16.4 -23.1 8.2 -23.2 -0.1C-23.2 -8.3 -24.1 -16.7 -20.4 -21.1C-16.7 -25.5 -8.3 -26 -1.5 -24.4C5.3 -22.9 10.5 -19.3 17.1 -14.9Z" fill="#FF0066"></path></g><g transform="translate(633 136)"><path d="M19.8 -18.7C25.5 -14.2 29.7 -7.1 30 0.3C30.3 7.7 26.8 15.5 21.1 20.2C15.5 25 7.7 26.7 -1 27.8C-9.8 28.8 -19.6 29.1 -25.2 24.4C-30.7 19.6 -32 9.8 -30.6 1.4C-29.2 -7.1 -25.2 -14.2 -19.7 -18.6C-14.2 -23.1 -7.1 -25 0 -25C7.1 -25 14.2 -23.1 19.8 -18.7Z" fill="#FF0066"></path></g><g transform="translate(604 490)"><path d="M13.4 -13.8C17.2 -9.5 20.2 -4.8 20.8 0.7C21.5 6.1 19.9 12.2 16.1 15.7C12.2 19.2 6.1 20 0.2 19.9C-5.8 19.7 -11.6 18.5 -16.5 15.1C-21.3 11.6 -25.3 5.8 -24.8 0.5C-24.3 -4.8 -19.4 -9.6 -14.5 -13.9C-9.6 -18.1 -4.8 -21.9 0 -21.9C4.8 -21.9 9.5 -18.1 13.4 -13.8Z" fill="#FF0066"></path></g><g transform="translate(888 266)"><path d="M24.1 -24C29.5 -18.6 31.1 -9.3 29.7 -1.4C28.2 6.4 23.7 12.8 18.3 16.3C12.8 19.8 6.4 20.5 -0.1 20.6C-6.6 20.7 -13.3 20.3 -19.9 16.8C-26.6 13.3 -33.2 6.6 -34.2 -1C-35.2 -8.7 -30.7 -17.4 -24.1 -22.8C-17.4 -28.2 -8.7 -30.2 0.3 -30.5C9.3 -30.8 18.6 -29.3 24.1 -24Z" fill="#FF0066"></path></g><g transform="translate(858 139)"><path d="M22.3 -20.9C28.7 -16 33.3 -8 33.9 0.6C34.5 9.2 31 18.4 24.7 24.8C18.4 31.3 9.2 34.9 0.4 34.5C-8.4 34.1 -16.8 29.7 -21.9 23.2C-27 16.8 -28.9 8.4 -29 -0.1C-29.1 -8.5 -27.3 -17.1 -22.2 -21.9C-17.1 -26.7 -8.5 -27.9 -0.3 -27.7C8 -27.4 16 -25.7 22.3 -20.9Z" fill="#FF0066"></path></g><g transform="translate(525 178)"><path d="M17.2 -17.3C24 -10.4 32.5 -5.2 33 0.6C33.6 6.3 26.3 12.6 19.4 17.8C12.6 23 6.3 27.1 -1.1 28.2C-8.5 29.3 -17 27.4 -21.5 22.2C-26 17 -26.5 8.5 -25.2 1.3C-23.9 -5.9 -20.7 -11.7 -16.2 -18.6C-11.7 -25.6 -5.9 -33.5 -0.3 -33.2C5.2 -32.9 10.4 -24.2 17.2 -17.3Z" fill="#FF0066"></path></g><g transform="translate(601 366)"><path d="M24.8 -22.3C30.9 -18.6 33.9 -9.3 33 -0.9C32.2 7.6 27.5 15.2 21.4 21.2C15.2 27.1 7.6 31.4 1 30.4C-5.6 29.4 -11.2 23.1 -15.8 17.2C-20.3 11.2 -23.8 5.6 -26.1 -2.3C-28.4 -10.2 -29.5 -20.4 -24.9 -24.1C-20.4 -27.7 -10.2 -24.9 -0.4 -24.4C9.3 -24 18.6 -26 24.8 -22.3Z" fill="#FF0066"></path></g><g transform="translate(236 376)"><path d="M11.6 -10.9C15.1 -8.1 18 -4 19.2 1.2C20.4 6.5 19.9 12.9 16.4 16.1C12.9 19.2 6.5 19.1 1 18.2C-4.5 17.2 -9 15.4 -12.9 12.2C-16.7 9 -19.9 4.5 -21.5 -1.6C-23.1 -7.7 -23.1 -15.5 -19.3 -18.3C-15.5 -21.1 -7.7 -18.9 -1.8 -17.1C4 -15.3 8.1 -13.7 11.6 -10.9Z" fill="#FF0066"></path></g><g transform="translate(896 546)"><path d="M18.7 -19.8C22.5 -14.9 22.8 -7.4 21.8 -1C20.8 5.5 18.6 10.9 14.8 16.7C10.9 22.4 5.5 28.3 -1.2 29.6C-7.9 30.8 -15.8 27.3 -21.8 21.6C-27.7 15.8 -31.7 7.9 -30.3 1.3C-29 -5.2 -22.3 -10.5 -16.4 -15.4C-10.5 -20.3 -5.2 -25 1.1 -26.1C7.4 -27.2 14.9 -24.7 18.7 -19.8Z" fill="#FF0066"></path></g><g transform="translate(490 447)"><path d="M25.3 -23.3C33.2 -17.5 40.2 -8.7 39.2 -1C38.3 6.8 29.3 13.6 21.5 21.9C13.6 30.3 6.8 40.2 0.2 39.9C-6.3 39.7 -12.6 29.3 -20 20.9C-27.4 12.6 -35.9 6.3 -36.6 -0.8C-37.4 -7.8 -30.5 -15.7 -23.1 -21.5C-15.7 -27.4 -7.8 -31.3 0.4 -31.7C8.7 -32.1 17.5 -29.2 25.3 -23.3Z" fill="#FF0066"></path></g><g transform="translate(410 240)"><path d="M13.5 -15.8C16.7 -10.2 18.1 -5.1 18.8 0.7C19.5 6.5 19.6 13.1 16.3 17.4C13.1 21.7 6.5 23.8 1.2 22.6C-4.1 21.4 -8.2 16.9 -12 12.5C-15.9 8.2 -19.4 4.1 -20.1 -0.7C-20.7 -5.4 -18.5 -10.9 -14.7 -16.4C-10.9 -22 -5.4 -27.7 -0.2 -27.5C5.1 -27.4 10.2 -21.4 13.5 -15.8Z" fill="#FF0066"></path></g><g transform="translate(623 597)"><path d="M26.7 -27.5C33.1 -20.3 35.7 -10.2 35.1 -0.7C34.4 8.9 30.5 17.7 24.1 24.8C17.7 31.8 8.9 37.1 1.1 36C-6.7 34.9 -13.4 27.5 -19 20.4C-24.6 13.4 -29.1 6.7 -28.5 0.6C-27.9 -5.4 -22.1 -10.9 -16.5 -18C-10.9 -25.1 -5.4 -33.9 2.4 -36.2C10.2 -38.6 20.3 -34.6 26.7 -27.5Z" fill="#FF0066"></path></g><g transform="translate(784 344)"><path d="M24.6 -26.7C29.1 -20.1 28.1 -10.1 26.5 -1.6C24.9 6.9 22.9 13.9 18.4 21.5C13.9 29.1 6.9 37.3 -0.4 37.7C-7.7 38.1 -15.4 30.6 -22 23C-28.6 15.4 -34.1 7.7 -34.8 -0.7C-35.5 -9.1 -31.4 -18.2 -24.8 -24.8C-18.2 -31.4 -9.1 -35.4 0.5 -35.9C10.1 -36.4 20.1 -33.3 24.6 -26.7Z" fill="#FF0066"></path></g></g></svg>