<svg id="visual" viewBox="0 0 900 600" width="900" height="600" xmlns="http://www.w3.org/2000/svg" xmlns:xlink="http://www.w3.org/1999/xlink" version="1.1"><path d="M652 600L652.2 594.7C652.3 589.3 652.7 578.7 653.7 568.2C654.7 557.7 656.3 547.3 646.3 536.8C636.3 526.3 614.7 515.7 603.3 505.2C592 494.7 591 484.3 597.5 473.8C604 463.3 618 452.7 634.8 442.2C651.7 431.7 671.3 421.3 679.3 410.8C687.3 400.3 683.7 389.7 696 379C708.3 368.3 736.7 357.7 752.3 347.2C768 336.7 771 326.3 755.8 315.8C740.7 305.3 707.3 294.7 682.2 284.2C657 273.7 640 263.3 645.2 252.8C650.3 242.3 677.7 231.7 698.2 221C718.7 210.3 732.3 199.7 717 189.2C701.7 178.7 657.3 168.3 634.5 157.8C611.7 147.3 610.3 136.7 630.3 126.2C650.3 115.7 691.7 105.3 721.5 94.8C751.3 84.3 769.7 73.7 757.2 63.2C744.7 52.7 701.3 42.3 692.3 31.8C683.3 21.3 708.7 10.7 721.3 5.3L734 0" fill="none" stroke-linecap="round" stroke-linejoin="miter" stroke="#FF0066" stroke-width="32"></path></svg>