<svg id="visual" viewBox="0 0 900 600" width="900" height="600" xmlns="http://www.w3.org/2000/svg" xmlns:xlink="http://www.w3.org/1999/xlink" version="1.1"><path d="M290 0L291 6.3C292 12.7 294 25.3 278.3 37.8C262.7 50.3 229.3 62.7 213.3 75.2C197.3 87.7 198.7 100.3 220.2 112.8C241.7 125.3 283.3 137.7 301 150.2C318.7 162.7 312.3 175.3 293.2 187.8C274 200.3 242 212.7 235.7 225.2C229.3 237.7 248.7 250.3 262.8 262.8C277 275.3 286 287.7 276.8 300.2C267.7 312.7 240.3 325.3 240 337.8C239.7 350.3 266.3 362.7 251.7 375.2C237 387.7 181 400.3 157.5 412.8C134 425.3 143 437.7 157.5 450.2C172 462.7 192 475.3 192.8 487.8C193.7 500.3 175.3 512.7 180.5 525.2C185.7 537.7 214.3 550.3 224.7 562.8C235 575.3 227 587.7 223 593.8L219 600" fill="none" stroke-linecap="round" stroke-linejoin="miter" stroke="#0066FF" stroke-width="32"></path></svg>